<?xml version="1.0" encoding="utf-8"?>
<!-- Svg Vector Icons : http://www.onlinewebfonts.com/icon -->
<!DOCTYPE svg PUBLIC "-//W3C//DTD SVG 1.1//EN" "http://www.w3.org/Graphics/SVG/1.1/DTD/svg11.dtd">
<svg style="margin-right: 5px" version="1.1" width="12px" height="12px" xmlns="http://www.w3.org/2000/svg" xmlns:xlink="http://www.w3.org/1999/xlink" x="0px" y="0px" viewBox="0 0 256 256" enable-background="new 0 0 256 256" xml:space="preserve">
<metadata> Svg Vector Icons : http://www.onlinewebfonts.com/icon </metadata>
<g><g><g><path fill="#b200ff" d="M44.3,10c-10,2-17.8,8.7-21.6,18.7l-1,2.8l-0.1,74.8L21.4,181l-2.4,2.7c-2.8,3.1-6.8,10.8-7.9,15.3c-4.7,18.6,6.2,38.5,24.7,45c5.5,2,11.7,2.6,16.8,1.9c8.4-1.2,16.3-5.2,22.2-11.1c2.9-2.9,6.9-8.5,8.1-11.3c0.4-1,1.8-2.1,5.8-4.2c2.9-1.6,5.2-3,5.2-3.1c0-0.5-2.9-5.7-3.3-6c-0.2-0.1-1.3,0.1-2.3,0.7l-1.9,1l-0.3-4.9c-0.1-2.7-0.7-6.5-1.2-8.4c-0.5-2-0.9-3.6-0.8-3.7c0-0.1,1.9,0.9,4,2.2c7.4,4.5,17.6,8.2,27.3,9.9c5.5,1,19,1.1,24.3,0.2c29.2-4.8,52.5-23.7,63.4-51.3c1.6-4.2,3.5-11.1,4.4-16.5c0.8-4.6,0.8-18.3,0-22.9C203.1,90,186.9,68,163.1,56.2c-18.8-9.4-40.2-10.8-60.3-4.1c-8.6,2.9-18,8.1-25,13.8l-3,2.4V53.1c0-8.4,0.1-15.3,0.3-15.3c0.1,0,3.6,1.8,7.6,4.1c4.1,2.2,7.6,4,7.8,3.8c0.4-0.2,3.3-5.4,3.3-5.9c0-0.2-4.6-2.9-10.2-6l-10.2-5.7l-1.8-3.6c-3.1-6.2-8.9-11.1-15.8-13.5C53.1,10.1,46.6,9.5,44.3,10z M55.3,18.5c4.9,2,8.4,5.5,10.6,10.6c1,2.2,1,3.4,1.1,78.5l0.1,76.3l2.8,3c5.6,6.1,8.1,11.7,8.5,19.6c0.3,6.1-0.6,10.6-3.2,15.9c-8.9,18-34.4,21.9-48.8,7.4c-6.2-6.2-9.2-14.1-8.7-23.4c0.4-7.9,3.4-14.6,9.1-20.3c2.2-2.1,2.2-2.1,2.2-5.3v-3.2h3.8h3.8v-3.8V170h-3.8H29v-5.7v-5.7h3.8h3.8v-3.8v-3.8h-3.8H29v-5.7v-5.7h3.8h3.8v-3.8v-3.8h-3.8H29v-5.7v-5.7h3.8h3.8v-3.8v-3.8h-3.8H29V107v-5.7h3.8h3.8v-3.8v-3.8h-3.8H29v-5.7v-5.7h3.8h3.8v-3.8v-3.8h-3.8H29v-5.7v-5.7h3.8h3.8v-3.8v-3.8h-3.8H29v-5.7V44h3.8h3.8v-3.8v-3.8h-3.8H29v-1.3c0-4.1,2.2-9,5.5-12.3c4-4,8.3-5.6,14.5-5.3C51.5,17.6,54,18,55.3,18.5z M143.1,56.9c14.5,3.1,26,9.3,36.4,19.7c14.7,14.7,21.9,33.2,21,54.4c-0.8,18.9-7.8,35-21,48.3c-13.3,13.3-29.3,20.3-48.3,21c-20,0.8-38.2-5.9-52.3-19.4l-4.2-4v-49v-49l4.2-4c11.4-10.9,24.1-16.7,41.8-19.2C124.5,55.2,138.6,55.9,143.1,56.9z"/><path fill="#000000" d="M44.3,113v80.4l-2.4,1.2c-3.4,1.7-5.3,3.6-7.2,7c-1.4,2.7-1.6,3.4-1.6,6.6c0,3,0.2,4,1.3,6.1c1.9,3.6,3.7,5.5,7.1,7.3c2.7,1.4,3.4,1.6,6.6,1.6c3.1,0,4-0.2,6.6-1.6c5.5-3,8.3-7.5,8.4-13.4c0-3.2-0.1-3.9-1.6-6.6c-1.9-3.4-3.8-5.3-7.2-7l-2.4-1.2V113V32.6h-3.8h-3.8V113z M52.7,201.7c2.1,1.6,3.1,3.9,2.8,7c-0.3,4.8-3.1,7.2-8.1,6.9c-4.8-0.3-7.2-3.1-6.9-8.1c0.2-3.2,1.2-4.9,3.7-6.2C46.5,200.2,50.9,200.4,52.7,201.7z"/><path fill="#000000" d="M120.7,22.4l-7.2,12.1l2.2,1.3c1.2,0.7,2.7,1.6,3.3,2c1,0.7,1.1,0.5,5-6c2.2-3.7,4.1-6.7,4.2-6.7c0.1,0,2,3,4.2,6.6l4,6.7l2-1.2c1.1-0.7,2.5-1.5,3.1-1.8c0.7-0.3,1-0.8,0.9-1.3c-0.2-1-13.5-23.2-14.1-23.5C128.1,10.3,124.7,15.7,120.7,22.4z"/><path fill="#000000" d="M175,32.6c-6.4,3.6-11.9,6.7-12.2,6.8c-0.5,0.2,1.7,4.7,2.9,6c0.5,0.5,1.7,0,7.2-3c3.6-2.1,6.6-3.6,6.8-3.4c0.1,0.1,0.3,3.7,0.5,7.9l0.3,7.7h3.2c1.7,0,3.4-0.2,3.6-0.4c0.6-0.4,0.4-28.3-0.2-28.2C186.8,25.9,181.4,28.9,175,32.6z"/><path fill="#000000" d="M201.9,69.2c-0.1,0.3-0.2,2-0.2,3.6v3l7.7,0.3c4.2,0.1,7.7,0.3,7.9,0.5c0.1,0.1-1.4,3.1-3.4,6.7c-3.1,5.5-3.5,6.7-3,7.2c0.9,0.9,5.6,3.3,5.9,3.1c0.4-0.4,13.6-24.4,13.5-24.5c-0.1-0.1-6.4-0.2-14.1-0.3C204.5,68.6,202.2,68.6,201.9,69.2z"/><path fill="#000000" d="M220.5,115.5c-0.7,1.2-1.6,2.7-2,3.3c-0.7,1-0.5,1.1,6,5c3.7,2.2,6.7,4.1,6.7,4.2c0,0.1-3,2-6.7,4.2c-6.5,3.9-6.7,4-6,5c0.3,0.6,1.2,2.1,2,3.2l1.3,2.2l12.1-7.3c6.6-4,12.1-7.3,12.1-7.4c0-0.1-5.4-3.5-12.1-7.5l-12.1-7.2L220.5,115.5z"/><path fill="#000000" d="M213.5,163.7c-1.2,0.7-2.5,1.5-2.8,1.8c-0.4,0.4,0.6,2.4,3.1,7.1c2,3.6,3.6,6.7,3.4,6.8c-0.1,0.1-3.6,0.3-7.9,0.5l-7.7,0.3v3.2c0,1.7,0.2,3.4,0.4,3.7c0.4,0.6,28.4,0.3,28.1-0.3c-1-2.3-13.6-24.3-14-24.3C216,162.4,214.8,163,213.5,163.7z"/><path fill="#000000" d="M180.1,209.1c-0.1,4.2-0.4,7.8-0.5,7.9c-0.1,0.1-3.2-1.4-6.8-3.4c-5.4-3-6.7-3.5-7.2-3c-0.8,0.9-3.3,5.6-3.1,5.8c0.4,0.4,24.4,13.6,24.5,13.5s0.2-6.4,0.3-14.1c0.1-11.6,0.1-14-0.5-14.2c-0.3-0.1-2-0.2-3.6-0.2h-3L180.1,209.1z"/><path fill="#000000" d="M116.7,219.6l-3.1,1.9l7.2,12.1c4,6.7,7.3,12.1,7.5,12.1c0.1,0,3.5-5.4,7.5-12.1l7.2-12.1l-2.2-1.3c-1.2-0.7-2.7-1.6-3.3-2c-1-0.7-1.1-0.5-5,6c-2.2,3.7-4.1,6.7-4.2,6.7c-0.1,0-1.8-2.7-3.7-5.9C119.6,216.8,120.4,217.4,116.7,219.6z"/></g></g></g>
</svg>
