<?xml version="1.0" encoding="iso-8859-1"?>
<!-- Uploaded to: SVG Repo, www.svgrepo.com, Generator: SVG Repo Mixer Tools -->
<svg fill="#000000" height="800px" width="800px" version="1.1" id="Layer_1" xmlns="http://www.w3.org/2000/svg" xmlns:xlink="http://www.w3.org/1999/xlink" 
	 viewBox="0 0 486.144 486.144" xml:space="preserve">
<g>
	<g>
		<path d="M247.167,73.18v-17.05c7.542-1.096,23.946-4.736,35.62-16.415C298.413,24.09,299.652,0,299.652,0
			s-24.09,1.239-39.716,16.865c-6.344,6.344-10.291,14.07-12.774,21.028v-9.6h-8.991v44.268c1.638,1.234,3.287,2.447,4.895,3.789
			C244.417,75.223,245.8,74.225,247.167,73.18z"/>
		<path d="M305.77,64.317c-22.866,0-44.595,11.018-62.7,28.995c-18.104-17.976-39.834-28.995-62.7-28.995
			c-69.253,0-96.983,86.093-71.9,162.084c18.273,55.363,61.082,90.307,99.666,90.307c12.739,0,24.535-3.528,34.934-9.774
			c10.399,6.246,22.19,9.774,34.934,9.774c38.584,0,81.398-34.944,99.671-90.307C402.753,150.405,375.024,64.317,305.77,64.317z
			 M136.698,167.813c-4.562,0-8.259-3.697-8.259-8.259c0-4.562,3.697-8.259,8.259-8.259c4.562,0,8.259,3.697,8.259,8.259
			C144.956,164.116,141.26,167.813,136.698,167.813z M165.928,140.508c-11.581,0-20.971-9.39-20.971-20.971
			c0-11.581,9.39-20.972,20.971-20.972c11.581,0,20.972,9.39,20.972,20.972C186.899,131.118,177.509,140.508,165.928,140.508z"/>
		<polygon points="271.364,349.635 217.302,349.635 217.302,395.812 186.623,395.812 243.071,486.144 302.043,395.817 
			271.364,395.817 		"/>
	</g>
</g>
</svg>