<?xml version="1.0" standalone="no"?>
<!DOCTYPE svg PUBLIC "-//W3C//DTD SVG 20010904//EN"
 "http://www.w3.org/TR/2001/REC-SVG-20010904/DTD/svg10.dtd">
<svg version="1.0" xmlns="http://www.w3.org/2000/svg"
 width="1280.000000pt" height="920.000000pt" viewBox="0 0 1280.000000 920.000000"
 preserveAspectRatio="xMidYMid meet">
<metadata>
Created by potrace 1.15, written by Peter Selinger 2001-2017
</metadata>
<g transform="translate(0.000000,920.000000) scale(0.100000,-0.100000)"
fill="#000000" stroke="none">
<path d="M890 9193 c-247 -24 -440 -79 -572 -165 -399 -258 -422 -752 -67
-1460 940 -1877 4324 -4685 7654 -6351 1999 -1000 3620 -1414 4409 -1126 247
90 398 251 468 499 21 76 16 326 -10 447 -65 302 -251 698 -515 1093 -394 590
-997 1274 -1718 1946 l-175 164 18 128 c132 952 -113 1945 -674 2735 -243 341
-583 679 -928 919 -377 263 -811 460 -1261 573 -315 80 -571 110 -924 110
-273 0 -403 -10 -642 -50 -441 -74 -888 -235 -1276 -459 l-97 -56 -202 94
c-1223 565 -2263 891 -3051 955 -119 10 -355 12 -437 4z m2055 -1363 c176 -31
413 -93 645 -170 113 -38 219 -74 236 -82 l31 -13 -99 -110 c-327 -363 -606
-822 -754 -1239 l-28 -79 -35 40 c-20 22 -81 92 -137 154 -628 710 -832 1244
-549 1439 54 37 134 67 214 80 88 14 341 3 476 -20z m7288 -4621 c159 -180
279 -335 396 -510 182 -273 261 -458 268 -634 7 -133 -14 -192 -93 -264 -98
-90 -206 -116 -451 -108 -220 6 -431 45 -728 134 -153 46 -484 161 -497 172
-5 4 72 88 170 186 322 324 552 648 737 1037 33 70 65 126 70 124 6 -1 63 -63
128 -137z"/>
<path d="M2821 4228 c225 -1310 1132 -2421 2373 -2907 320 -125 612 -198 976
-243 162 -20 720 -17 885 5 129 17 425 74 434 82 6 7 19 -1 -199 115 -1470
779 -3118 1893 -4352 2942 -70 59 -129 108 -131 108 -2 0 4 -46 14 -102z"/>
</g>
</svg>
