<?xml version="1.0" encoding="utf-8"?>
<!-- Svg Vector Icons : http://www.onlinewebfonts.com/icon -->
<!DOCTYPE svg PUBLIC "-//W3C//DTD SVG 1.1//EN" "http://www.w3.org/Graphics/SVG/1.1/DTD/svg11.dtd">
<svg version="1.1" xmlns="http://www.w3.org/2000/svg" xmlns:xlink="http://www.w3.org/1999/xlink" x="0px" y="0px" viewBox="0 0 256 256" enable-background="new 0 0 256 256" xml:space="preserve">
<metadata> Svg Vector Icons : http://www.onlinewebfonts.com/icon </metadata>
<g><g><path fill="#000000" d="M170.9,189.2c-13,9.1-28.2,13.7-43.8,13.5c-2,0-4.1-0.1-6.1-0.3c-0.8-0.1-1.7-0.2-2.5-0.3c-1.6-0.2-3.2-0.4-4.7-0.7c-1-0.2-1.9-0.4-2.8-0.7c-1.5-0.4-3-0.7-4.5-1.2c-0.7-0.2-1.4-0.5-2.1-0.7c-1.7-0.6-3.4-1.2-5.1-1.9c-0.4-0.1-0.7-0.3-1.1-0.5c-1.9-0.8-3.9-1.8-5.7-2.7c-0.1,0-0.2-0.1-0.3-0.1c-6.3-3.4-12-7.7-17-12.7c-0.1-0.1-0.2-0.2-0.2-0.3c-1.6-1.6-3-3.2-4.5-4.9c-0.3-0.4-0.6-0.7-0.9-1.1c-10.2-12.8-16.4-28.9-16.4-46.6h19.7L41.5,80.8L10,128h19.7c0,20.7,6.5,39.9,17.4,55.7c0.1,0.2,0.2,0.5,0.4,0.7c1.1,1.6,2.4,3.1,3.6,4.6c0.5,0.6,0.9,1.2,1.3,1.7c1.8,2.2,3.7,4.2,5.7,6.2c0.2,0.2,0.4,0.4,0.6,0.6c6.6,6.6,14,12.1,22.1,16.6c0.2,0.1,0.4,0.3,0.6,0.4c2.3,1.3,4.7,2.4,7.2,3.4c0.6,0.3,1.2,0.6,1.8,0.8c2.1,0.9,4.2,1.6,6.4,2.3c1,0.3,2,0.7,3.1,1c1.9,0.6,3.8,1,5.7,1.5c1.3,0.3,2.6,0.6,3.9,0.9c0.6,0.1,1.1,0.3,1.6,0.4c1.8,0.3,3.7,0.5,5.5,0.7c0.7,0.1,1.3,0.2,2,0.3c3.3,0.3,6.6,0.5,9.8,0.5c20,0,39.5-6.1,56.2-17.8c5.3-3.8,6.6-11.1,2.9-16.4C183.6,186.7,176.2,185.4,170.9,189.2 M226.3,128c0-20.6-6.4-39.8-17.3-55.6c-0.2-0.3-0.3-0.6-0.4-0.8c-1.3-1.9-2.8-3.7-4.3-5.5c-0.2-0.2-0.3-0.5-0.5-0.7c-10-12.1-22.5-21.5-36.7-27.6c-0.4-0.2-0.8-0.4-1.2-0.5c-2.3-0.9-4.6-1.8-6.9-2.5c-0.8-0.3-1.7-0.6-2.5-0.8c-2-0.6-4.1-1.1-6.2-1.6c-1.2-0.3-2.3-0.6-3.5-0.8c-0.6-0.1-1.1-0.3-1.7-0.4c-1.6-0.3-3.1-0.4-4.7-0.6c-1.1-0.1-2.1-0.3-3.2-0.4c-2.6-0.2-5.2-0.4-7.8-0.4c-0.5,0-0.9-0.1-1.4-0.1c-0.1,0-0.2,0-0.2,0c-20,0-39.4,6-56.1,17.7c-5.3,3.7-6.6,11.1-2.9,16.4c3.7,5.3,11.1,6.6,16.4,2.9c12.9-9,28-13.6,43.4-13.5c2.2,0,4.4,0.1,6.6,0.3c0.7,0.1,1.3,0.2,2,0.2c1.8,0.2,3.5,0.5,5.3,0.8c0.8,0.1,1.5,0.4,2.3,0.5c1.7,0.4,3.4,0.8,5.1,1.3c0.5,0.2,1,0.4,1.6,0.5c1.9,0.6,3.8,1.3,5.6,2c0.2,0.1,0.4,0.2,0.6,0.2c11,4.7,20.6,12,28.2,21.1c0,0,0.1,0.1,0.1,0.2c10.6,12.9,17,29.4,17,47.3h-19.7l31.5,47.2L246,128L226.3,128L226.3,128z"/></g></g>
</svg>